# xmcd
# 
# Track frame offsets:
#   150
#   12384
#   31749
#   61106
#   79382
#   104061
#   123652
#   136624
#   157084
#   173228
#   189605
#   206225
#   221305
#   240300
#   256515
#   274409
# 
# Disc length: 3866 seconds
# 
# Revision: 1
# Processed by: cddbd v1.5.1PL0 Copyright (c) Steve Scherf et al.
# Submitted via: VOLTOCDX V1.0.24 
# 
DISCID=e00f1810
DTITLE=My Artist - My Title
DYEAR=2005
DGENRE=Description of the extended genre
TTITLE0=Seether Broken feat Amy Lee.mp
TTITLE1=What goes around comes around
TTITLE2=
TTITLE3=
TTITLE4=My Humps
TTITLE5=
TTITLE6=
TTITLE7=Listen To Your Heart (Edmee's
TTITLE8=
TTITLE9=Everybody's Changing
TTITLE10=Because Of You
TTITLE11=Behind These Hazel Eyes
TTITLE12=Goodbye To You
TTITLE13=
TTITLE14=How Can This Happen To Me
TTITLE15=Mister DJ (Radio Edit)
EXTD=Extended CD description
EXTT0=
EXTT1=
EXTT2=
EXTT3=
EXTT4=
EXTT5=
EXTT6=
EXTT7=
EXTT8=
EXTT9=
EXTT10=
EXTT11=
EXTT12=
EXTT13=
EXTT14=
EXTT15=
PLAYORDER=
